<?xml version="1.0" encoding="UTF-8"?>
<svg id="Layer_2" data-name="Layer 2"
  xmlns="http://www.w3.org/2000/svg" viewBox="0 0 510.93 440.97">
  <defs>
    <style>
      .cls-1 {
        fill: #050404;
        stroke-width: 0px;
      }
    </style>
  </defs>
  <g id="Layer_1-2" data-name="Layer 1">
    <g>
      <path class="cls-1" d="M14.31,129.76c.86-4.2,1.69-7.58,2.83-10.61,8.55-22.82,18.63-42.68,31.15-57.78,12.96-15.63,27.04-26.05,42.04-32.03,12.15-4.83,24.43-6.17,36.82-5,20.94,1.98,41.13,10.75,60.88,23.69,14.65,9.59,28.83,21.32,42.98,33.19,14.97,12.55,29.94,25.1,45.29,35.95,14.92,10.55,30.1,19.38,45.72,25.31,11.82,4.49,23.76,7.33,35.8,8.56,10.32,1.05,20.63.73,30.92-.98,11.78-1.96,23.38-5.89,34.84-11.34,14.92-7.09,29.54-15.88,43.61-27.77,7.43-6.27,14.47-13.8,21.11-22.7,4.19-5.63,7.97-12.23,11.86-18.57.31-.51.54-1.23,1.07-1.48-.55,4.96-1.45,9.55-2.87,13.77-9.35,27.91-21.71,49.68-36.97,65.59-11.9,12.41-24.46,21.68-37.41,29.24-13.97,8.17-28.2,14.17-42.66,18.13-8.2,2.24-16.45,3.69-24.73,4.43-6.8.62-13.59.74-20.39.3-9-.6-17.96-2.04-26.9-4.25-31.26-7.73-61.44-23.63-91.09-43.49-15.89-10.64-31.56-22.3-47.39-33.22-15.05-10.39-30.23-20.01-45.82-27.12-11.38-5.2-22.86-9.11-34.55-10.4-20.73-2.29-40.24,5.97-58.47,24.92-1.99,2.06-3.91,4.39-5.71,6.99-3.7,5.34-7.63,10.07-11.17,15.82-.13.21-.29.33-.81.87Z"/>
      <path class="cls-1" d="M24,105.82c.86-4.2,1.69-7.58,2.83-10.61,8.55-22.82,18.63-42.68,31.15-57.78,12.96-15.63,27.04-26.05,42.04-32.03C112.16.57,124.44-.77,136.83.4c20.94,1.98,41.13,10.75,60.88,23.69,14.65,9.59,28.83,21.32,42.98,33.19,14.97,12.55,29.94,25.1,45.29,35.95,14.92,10.55,30.1,19.38,45.72,25.31,11.82,4.49,23.76,7.33,35.8,8.56,10.32,1.05,20.63.73,30.92-.98,11.78-1.96,23.38-5.89,34.84-11.34,14.92-7.09,29.54-15.88,43.61-27.77,7.43-6.27,14.47-13.8,21.11-22.7,4.19-5.63,7.97-12.23,11.86-18.57.31-.51.54-1.23,1.07-1.48-.55,4.96-1.45,9.55-2.87,13.77-9.35,27.91-21.71,49.68-36.97,65.59-11.9,12.41-24.46,21.68-37.41,29.24-13.97,8.17-28.2,14.17-42.66,18.13-8.2,2.24-16.45,3.69-24.73,4.43-6.8.62-13.59.74-20.39.3-9-.6-17.96-2.04-26.9-4.25-31.26-7.73-61.44-23.63-91.09-43.49-15.89-10.64-31.56-22.3-47.39-33.22-15.05-10.39-30.23-20.01-45.82-27.12-11.38-5.2-22.86-9.11-34.55-10.4-20.73-2.29-40.24,5.97-58.47,24.92-1.99,2.06-3.91,4.39-5.71,6.99-3.7,5.34-7.63,10.07-11.17,15.82-.13.21-.29.33-.81.87Z"/>
      <path class="cls-1" d="M7,148.56c.86-4.2,1.69-7.58,2.83-10.61,8.55-22.82,18.63-42.68,31.15-57.78,12.96-15.63,27.04-26.05,42.04-32.03,12.15-4.83,24.43-6.17,36.82-5,20.94,1.98,41.13,10.75,60.88,23.69,14.65,9.59,28.83,21.32,42.98,33.19,14.97,12.55,29.94,25.1,45.29,35.95,14.92,10.55,30.1,19.38,45.72,25.31,11.82,4.49,23.76,7.33,35.8,8.56,10.32,1.05,20.63.73,30.92-.98,11.78-1.96,23.38-5.89,34.84-11.34,14.92-7.09,29.54-15.88,43.61-27.77,7.43-6.27,14.47-13.8,21.11-22.7,4.19-5.63,7.97-12.23,11.86-18.57.31-.51.54-1.23,1.07-1.48-.55,4.96-1.45,9.55-2.87,13.77-9.35,27.91-21.71,49.68-36.97,65.59-11.9,12.41-24.46,21.68-37.41,29.24-13.97,8.17-28.2,14.17-42.66,18.13-8.2,2.24-16.45,3.69-24.73,4.43-6.8.62-13.59.74-20.39.3-9-.6-17.96-2.04-26.9-4.25-31.26-7.73-61.44-23.63-91.09-43.49-15.89-10.64-31.56-22.3-47.39-33.22-15.05-10.39-30.23-20.01-45.82-27.12-11.38-5.2-22.86-9.11-34.55-10.4-20.73-2.29-40.24,5.97-58.47,24.92-1.99,2.06-3.91,4.39-5.71,6.99-3.7,5.34-7.63,10.07-11.17,15.82-.13.21-.29.33-.81.87Z"/>
      <path class="cls-1" d="M0,170.82c.86-4.2,1.69-7.58,2.83-10.61,8.55-22.82,18.63-42.68,31.15-57.78,12.96-15.63,27.04-26.05,42.04-32.03,12.15-4.83,24.43-6.17,36.82-5,20.94,1.98,41.13,10.75,60.88,23.69,14.65,9.59,28.83,21.32,42.98,33.19,14.97,12.55,29.94,25.1,45.29,35.95,14.92,10.55,30.1,19.38,45.72,25.31,11.82,4.49,23.76,7.33,35.8,8.56,10.32,1.05,20.63.73,30.92-.98,11.78-1.96,23.38-5.89,34.84-11.34,14.92-7.09,29.54-15.88,43.61-27.77,7.43-6.27,14.47-13.8,21.11-22.7,4.19-5.63,7.97-12.23,11.86-18.57.31-.51.54-1.23,1.07-1.48-.55,4.96-1.45,9.55-2.87,13.77-9.35,27.91-21.71,49.68-36.97,65.59-11.9,12.41-24.46,21.68-37.41,29.24-13.97,8.17-28.2,14.17-42.66,18.13-8.2,2.24-16.45,3.69-24.73,4.43-6.8.62-13.59.74-20.39.3-9-.6-17.96-2.04-26.9-4.25-31.26-7.73-61.44-23.63-91.09-43.49-15.89-10.64-31.56-22.3-47.39-33.22-15.05-10.39-30.23-20.01-45.82-27.12-11.38-5.2-22.86-9.11-34.55-10.4-20.73-2.29-40.24,5.97-58.47,24.92-1.99,2.06-3.91,4.39-5.71,6.99-3.7,5.34-7.63,10.07-11.17,15.82-.13.21-.29.33-.81.87Z"/>
    </g>
  </g>
</svg>