<svg xmlns="http://www.w3.org/2000/svg"
    xmlns:xlink="http://www.w3.org/1999/xlink" width="3269" zoomAndPan="magnify" viewBox="0 0 2451.75 2451.749888" height="3269" preserveAspectRatio="xMidYMid meet" version="1.0">

    <defs>
        <filter x="0%" y="0%" width="100%" height="100%" id="0ab4e22126">
            <feColorMatrix values="0 0 0 0 1 0 0 0 0 1 0 0 0 0 1 0 0 0 1 0" color-interpolation-filters="sRGB"/>
        </filter>
        <clipPath id="e7a4c9f1b2">
            <path d="M 588 482 L 1928 482 L 1928 1803 L 588 1803 Z M 588 482 " clip-rule="nonzero"/>
        </clipPath>
        <clipPath id="21d56cf0c9">
            <path d="M 1900.3125 1332.363281 C 1809.78125 1544.296875 1641.054688 1713.019531 1641.054688 1713.019531 C 1472.332031 1881.742188 1264.515625 1760.34375 1264.515625 1760.34375 C 1056.695312 1638.945312 902.375 1552.527344 902.375 1552.527344 C 748.054688 1466.109375 632.832031 1293.269531 632.832031 1293.269531 C 517.605469 1120.429688 661.636719 968.167969 661.636719 968.167969 C 805.667969 815.90625 927.066406 696.566406 927.066406 696.566406 C 1048.464844 577.222656 1250.113281 501.09375 1250.113281 501.09375 C 1451.757812 424.960938 1573.15625 601.914062 1573.15625 601.914062 C 1694.554688 778.867188 1842.699219 949.648438 1842.699219 949.648438 C 1990.847656 1120.429688 1900.3125 1332.363281 1900.3125 1332.363281 Z M 1900.3125 1332.363281 " clip-rule="nonzero"/>
        </clipPath>
        <mask id="34de02208b">
            <g filter="url(#0ab4e22126)">
                <rect x="-245.175" width="2942.1" fill="#000000" y="-245.174989" height="2942.099866" fill-opacity="0.35"/>
            </g>
        </mask>
        <clipPath id="47167a5bac">
            <path d="M 681 586 L 1985 586 L 1985 1822 L 681 1822 Z M 681 586 " clip-rule="nonzero"/>
        </clipPath>
        <clipPath id="dbb27a6c54">
            <path d="M 272.472656 1279.066406 L 1211.746094 220.902344 L 2256.925781 1148.652344 L 1317.652344 2206.8125 Z M 272.472656 1279.066406 " clip-rule="nonzero"/>
        </clipPath>
        <clipPath id="45876ee781">
            <path d="M 1865.101562 841.476562 C 1968.878906 1061.265625 1983.832031 1312.480469 1983.832031 1312.480469 C 1998.78125 1563.691406 1757.527344 1642.613281 1757.527344 1642.613281 C 1516.273438 1721.535156 1340.0625 1782.75 1340.0625 1782.75 C 1163.855469 1843.964844 946.855469 1813.839844 946.855469 1813.839844 C 729.851562 1783.714844 710.597656 1563.503906 710.597656 1563.503906 C 691.339844 1343.292969 682.207031 1163.984375 682.207031 1163.984375 C 673.070312 984.675781 754.199219 772.324219 754.199219 772.324219 C 835.332031 559.972656 1059.898438 588.109375 1059.898438 588.109375 C 1284.46875 616.25 1522.898438 618.964844 1522.898438 618.964844 C 1761.324219 621.683594 1865.101562 841.476562 1865.101562 841.476562 Z M 1865.101562 841.476562 " clip-rule="nonzero"/>
        </clipPath>
        <clipPath id="053f9d6b17">
            <rect x="0" width="2451" y="0" height="2451"/>
        </clipPath>
        <mask id="4bf326e97c">
            <g filter="url(#0ab4e22126)">
                <rect x="-245.175" width="2942.1" fill="#000000" y="-245.174989" height="2942.099866" fill-opacity="0.27"/>
            </g>
        </mask>
        <clipPath id="1ee25e048c">
            <path d="M 206 254 L 1722 254 L 1722 1668 L 206 1668 Z M 206 254 " clip-rule="nonzero"/>
        </clipPath>
        <clipPath id="b183729877">
            <path d="M 148.699219 1624.726562 L 236.425781 203.253906 L 1775.601562 298.246094 L 1687.875 1719.71875 Z M 148.699219 1624.726562 " clip-rule="nonzero"/>
        </clipPath>
        <clipPath id="13f934d58e">
            <path d="M 1187.847656 323.320312 C 1364.933594 472.847656 1475.261719 636.429688 1475.261719 636.429688 C 1585.585938 800.015625 1695.273438 1047.628906 1695.273438 1047.628906 C 1804.957031 1295.242188 1530.710938 1357.839844 1530.710938 1357.839844 C 1256.46875 1420.441406 1085.144531 1582.546875 1085.144531 1582.546875 C 913.816406 1744.65625 714.40625 1625.558594 714.40625 1625.558594 C 514.992188 1506.464844 429.117188 1314.851562 429.117188 1314.851562 C 343.242188 1123.238281 233.558594 875.625 233.558594 875.625 C 123.871094 628.011719 383.671875 541.796875 383.671875 541.796875 C 643.46875 455.585938 827.117188 314.6875 827.117188 314.6875 C 1010.765625 173.789062 1187.847656 323.320312 1187.847656 323.320312 Z M 1187.847656 323.320312 " clip-rule="nonzero"/>
        </clipPath>
        <clipPath id="7bc31371a5">
            <rect x="0" width="1924" y="0" height="1923"/>
        </clipPath>
    </defs>
    <g class="blob" clip-path="url(#e7a4c9f1b2)">
        <g clip-path="url(#21d56cf0c9)">
            <path fill="#3dd0ff" d="M 402.378906 297.390625 L 2048.460938 297.390625 L 2048.460938 1943.472656 L 402.378906 1943.472656 Z M 402.378906 297.390625 " fill-opacity="1" fill-rule="nonzero"/>
        </g>
    </g>
    <g mask="url(#34de02208b)">
        <g transform="matrix(1, 0, 0, 1, 0, 0)">
            <g clip-path="url(#053f9d6b17)">
                <g clip-path="url(#47167a5bac)">
                    <g class="blob2" clip-path="url(#dbb27a6c54)">
                        <g clip-path="url(#45876ee781)">
                            <path fill="#3dd0ff" d="M 0 1298.359375 L 1152.484375 0 L 2450.839844 1152.484375 L 1298.359375 2450.839844 Z M 0 1298.359375 " fill-opacity="1" fill-rule="nonzero"/>
                        </g>
                    </g>
                </g>
            </g>
        </g>
    </g>
    <g mask="url(#4bf326e97c)">
        <g transform="matrix(1, 0, 0, 1, 401, 243)">
            <g clip-path="url(#7bc31371a5)">
                <g clip-path="url(#1ee25e048c)">
                    <g class="blob3" clip-path="url(#b183729877)">
                        <g clip-path="url(#13f934d58e)">
                            <path fill="#3dd0ff" d="M 0.878906 1811.007812 L 112.628906 0.210938 L 1923.425781 111.964844 L 1811.671875 1922.761719 Z M 0.878906 1811.007812 " fill-opacity="1" fill-rule="nonzero"/>
                        </g>
                    </g>
                </g>
            </g>
        </g>
    </g>
</svg>


